<?xml version="1.0" standalone="no"?>
<!DOCTYPE svg PUBLIC "-//W3C//DTD SVG 1.1//EN" "http://www.w3.org/Graphics/SVG/1.1/DTD/svg11.dtd" >
<svg xmlns="http://www.w3.org/2000/svg">
<metadata></metadata>
<defs>
<font id="CantarellRegular" horiz-adv-x="1298" >
<font-face units-per-em="2048" ascent="1638" descent="-410" />
<missing-glyph horiz-adv-x="559" />
<glyph horiz-adv-x="0" />
<glyph horiz-adv-x="2048" />
<glyph unicode=" "  horiz-adv-x="559" />
<glyph unicode="&#x09;" horiz-adv-x="559" />
<glyph unicode="&#xa0;" horiz-adv-x="559" />
<glyph unicode="!" horiz-adv-x="649" d="M225 0v201h201v-201h-201zM240 459v962h170v-962h-170z" />
<glyph unicode="&#x22;" horiz-adv-x="794" d="M111 1083v428h184v-428h-184zM500 1083v428h184v-428h-184z" />
<glyph unicode="#" horiz-adv-x="1400" d="M45 881v149h317v391h160v-391h359v391h159v-391h318v-149h-318v-353h318v-149h-318v-410h-159v410h-359v-410h-160v410h-315v149h315v353h-317zM522 528h359v353h-359v-353z" />
<glyph unicode="$" horiz-adv-x="1198" d="M227 299l45 125q74 -31 98.5 -40.5t75 -19.5t111.5 -10q157 0 219 62q37 37 37 86q0 26 -8.5 46.5t-19 33t-32 24.5t-36 17t-42 14t-40.5 14q-22 8 -95 31t-110 41q-46 22 -90 55q-88 64 -88 183q0 130 133 219q66 42 168 59v272h121v-260h53q9 0 32.5 -3t33.5 -3 q24 0 77 -14l23 -6q5 -1 20.5 -6.5t24.5 -8.5l-41 -125q-133 37 -215 37q-95 0 -149.5 -15.5t-86.5 -59.5q-24 -35 -24 -72q0 -75 147 -123q183 -60 275 -104q58 -27 103.5 -82t45.5 -117t-11 -98.5t-40 -77.5q-79 -118 -268 -142v-297h-121v291q-149 3 -326 74z" />
<glyph unicode="%" horiz-adv-x="1327" d="M86 0l969 1421h170l-969 -1421h-170zM98 1081q0 125 61.5 204t168.5 79q109 0 168 -72.5t59 -199.5q0 -123 -61 -204t-168 -81q-109 0 -168.5 74.5t-59.5 199.5zM197 1112q0 -48 6 -84.5t20 -66.5t41 -46t66 -16q57 0 92 47.5t35 116.5q0 107 -30 156t-116 49 q-50 0 -82 -46.5t-32 -109.5zM748 342q0 141 71 215q73 76 158 76q87 0 166 -58q80 -59 80 -206q0 -133 -63.5 -223.5t-174.5 -90.5q-96 0 -168 72q-69 69 -69 215zM844 371q0 -130 53 -183q41 -38 92 -38q48 0 92 47q43 46 43 151q0 143 -94 180q-21 9 -47 9 q-60 0 -99.5 -49t-39.5 -117z" />
<glyph unicode="&#x26;" horiz-adv-x="1587" d="M180 272q0 215 172 373q19 18 115 96l37 29l-78 84q-124 136 -124 267q0 43 11 79q34 116 146 178t227 62h9q243 0 321 -158q22 -43 22 -103q0 -29 -4 -53q-12 -87 -108 -188l-31 -31q-18 -15 -39 -33l-129 -102l348 -371l324 353l94 -95l-324 -358l283 -301h-203 l-194 201q-65 -64 -110.5 -101t-109.5 -75t-137.5 -55t-164.5 -17q-153 0 -253 88.5t-100 230.5zM347 328q0 -101 71 -164.5t174 -63.5q164 0 336 166l33 33l-361 373l-102 -84q-151 -126 -151 -260zM470 1112q0 -27 9 -52.5t29.5 -52t34.5 -41.5t41 -42l51 -54l88 68 q68 52 100 88q52 58 52 105q0 75 -51.5 120.5t-130.5 45.5q-60 0 -108 -21.5t-75 -56.5q-40 -52 -40 -107z" />
<glyph unicode="'" horiz-adv-x="403" d="M111 1083v428h184v-428h-184z" />
<glyph unicode="(" horiz-adv-x="741" d="M219 575q0 465 311 973l132 -69q-130 -215 -199 -453q-68 -236 -68 -453q0 -463 267 -897l-130 -84q-149 246 -229 492q-84 260 -84 491z" />
<glyph unicode=")" horiz-adv-x="741" d="M80 -324q266 438 266 899q0 219 -67 451q-69 238 -199 453l133 69q146 -239 225 -481q84 -257 84 -492q0 -240 -84 -491q-86 -257 -229 -492z" />
<glyph unicode="*" horiz-adv-x="1193" d="M180 844l285 141l-285 143l84 150l266 -176l-18 317h170l-16 -317l266 176l84 -150l-285 -143l285 -141l-84 -150l-266 176l16 -317h-170l18 317l-266 -176z" />
<glyph unicode="+" horiz-adv-x="1398" d="M125 590v137h502v506h147v-506h502v-137h-502v-506h-147v506h-502z" />
<glyph unicode="," horiz-adv-x="569" d="M43 -219l158 389h180l-160 -389h-178z" />
<glyph unicode="-" horiz-adv-x="819" d="M113 590v137h594v-137h-594z" />
<glyph unicode="." horiz-adv-x="569" d="M180 0v211h209v-211h-209z" />
<glyph unicode="/" horiz-adv-x="724" d="M41 -90l496 1511h170l-496 -1511h-170z" />
<glyph unicode="0" d="M110 730q0 331 148 515q159 195 393 195q124 0 236 -62q303 -169 303 -647q0 -536 -332 -702q-98 -49 -211 -49q-108 0 -211 53q-159 82 -242.5 263t-83.5 434zM278 740q0 -420 211 -560q76 -51 166 -51q89 0 162 55q203 149 203 540q0 356 -193 503q-77 59 -165 59 q-95 0 -170 -44.5t-121 -121.5t-69.5 -173.5t-23.5 -206.5z" />
<glyph unicode="1" d="M250 1280l344 141h197v-1271h329v-150h-827v150h334v1107l-314 -122z" />
<glyph unicode="2" d="M199 1319q228 113 447 113q226 0 358 -129q102 -102 102 -234q0 -121 -74 -219q-57 -73 -178 -176q-39 -33 -137 -117q-112 -100 -178 -192t-107 -215h701v-150h-908v92q68 212 215 397q116 142 291 281l84 70q93 80 107 141q7 27 7 56q0 84 -73 155q-95 92 -241 92 q-84 0 -216 -41l-161 -51z" />
<glyph unicode="3" d="M176 33l47 137q203 -57 346 -57q134 0 246 80q111 80 111 206q0 135 -131 217q-109 68 -303 68h-21v145q253 9 344 119q49 58 49 135q0 92 -86 146.5t-203 54.5q-130 0 -315 -84l-55 135q208 103 397 103q115 0 212.5 -38.5t159.5 -116.5t62 -181q0 -116 -62 -202.5 t-157 -121.5q281 -78 281 -342q0 -216 -156 -348q-157 -133 -395 -133h-4q-176 0 -367 78z" />
<glyph unicode="4" d="M121 344v113l573 964h238v-927h248v-150h-248v-344h-164v344h-647zM315 494h453v766z" />
<glyph unicode="5" d="M172 14l33 152q162 -32 305 -32q113 0 189.5 16t134.5 59q126 93 126 226q0 67 -21.5 114t-68.5 90q-62 57 -141 81.5t-194 24.5q-81 0 -299 -24v700h856v-149h-695l2 -389q113 13 209 13q183 0 306 -65.5t182 -187.5q41 -91 41 -184q0 -218 -160 -353 q-101 -82 -215 -104q-106 -23 -241 -23q-165 0 -349 35z" />
<glyph unicode="6" d="M170 582q0 662 459 809q127 41 278 41q64 0 123 -7l-12 -147q-68 7 -113 7q-220 0 -355 -98.5t-177 -285.5q-11 -51 -19 -106q57 63 142 100t190 37q211 -3 336 -146q105 -122 105 -302q0 -218 -138 -363.5t-342 -145.5q-180 0 -291 91q-101 84 -143.5 206.5t-42.5 309.5 zM336 480q0 -144 93.5 -254.5t223.5 -110.5q132 0 221 107t89 249q0 134 -90 228t-225 94q-136 0 -224 -90.5t-88 -222.5z" />
<glyph unicode="7" d="M131 1262v159h1038v-106l-663 -1315h-199l654 1262h-830z" />
<glyph unicode="8" d="M150 391q0 132 83 238t201 162q-158 79 -196 237q-9 38 -9 88q0 62 32.5 121t78.5 100q115 103 311 103q191 0 304.5 -88t113.5 -258q0 -91 -47 -158q-49 -69 -154 -143q146 -65 213 -164q70 -103 70 -219q0 -134 -84 -244q-140 -186 -412 -186q-144 0 -258.5 53.5 t-179.5 144.5q-67 94 -67 213zM324 406q0 -120 99 -198.5t232 -78.5q136 0 228 73t92 195q0 201 -250 295q-48 19 -104 33q-57 -16 -108 -44.5t-94.5 -68t-69 -93t-25.5 -113.5zM397 1098q0 -139 203 -213q11 -5 38 -13.5t36 -11.5l24 -8q134 84 170 131q37 49 37 111 q0 63 -37.5 110t-93.5 70q-54 22 -147 22q-85 0 -157.5 -59.5t-72.5 -138.5z" />
<glyph unicode="9" d="M171 954q0 110 44.5 203.5t114.5 157.5q145 127 323 127q165 0 277 -84t157 -217q44 -132 44 -317q0 -194 -50 -362t-143 -267q-195 -210 -549 -210q-5 0 -15.5 0.5t-15.5 0.5q-46 0 -90 6l13 147q61 -6 118 -6q450 0 523 404q14 104 16 118q-53 -59 -139 -95t-187 -36 q-211 3 -336 146q-105 120 -105 284zM335 973q0 -105 70 -193q97 -117 243 -117q132 0 224 89q91 91 91 205q0 97 -55.5 182.5t-135.5 128.5q-64 34 -130 34q-20 0 -49 -7t-48 -14l-19 -7q-80 -35 -135.5 -120.5t-55.5 -180.5z" />
<glyph unicode=":" horiz-adv-x="569" d="M180 0v211h209v-211h-209zM180 782v211h209v-211h-209z" />
<glyph unicode=";" horiz-adv-x="569" d="M43 -219l158 389h180l-160 -389h-178zM180 782v211h209v-211h-209z" />
<glyph unicode="&#x3c;" horiz-adv-x="1071" d="M100 532v166l873 430v-155l-699 -352l699 -336v-164z" />
<glyph unicode="=" horiz-adv-x="1398" d="M219 350v152h961v-152h-961zM219 805v149h961v-149h-961z" />
<glyph unicode="&#x3e;" horiz-adv-x="1071" d="M100 121v164l699 336l-699 352v155l873 -430v-166z" />
<glyph unicode="?" horiz-adv-x="1044" d="M100 1368q143 70 338 70q94 0 172.5 -20t138.5 -60.5t94 -107t34 -152.5q0 -160 -76 -254q-29 -36 -76 -80l-80 -70q-95 -79 -123 -155q-26 -71 -26 -148h-170q0 170 75 273q56 74 127 133q86 68 110 93q73 76 73 179q0 225 -344 225q-106 0 -215 -47zM311 0v201h201 v-201h-201z" />
<glyph unicode="@" horiz-adv-x="2099" d="M158 483q0 207 73 378t195 288q114 108 287.5 180t357.5 72q221 0 372.5 -46.5t268.5 -148.5q141 -122 201 -284q61 -155 61 -306q0 -189 -43.5 -320t-136.5 -218q-107 -101 -227 -101q-167 0 -236 134q-119 -134 -295 -134q-126 0 -229 64q-199 128 -199 418 q0 250 142 389q135 135 340 135q117 0 245 -51l17 41h106v-674q0 -93 30.5 -138.5t104.5 -45.5q85 0 146 108q65 118 65 357q0 226 -100 389q-177 293 -598 293q-175 0 -316 -57.5t-241 -157.5q-96 -96 -155.5 -240t-59.5 -309q0 -228 81 -390.5t228 -257.5 q177 -113 407 -113q156 0 322 54v-137q-198 -61 -372 -61q-126 0 -246 32q-271 73 -433.5 301.5t-162.5 556.5zM788 475q0 -164 71 -260t214 -96q91 0 146 35q58 37 84 73q0 4 -1.5 12.5t-1.5 12.5v567q-88 35 -192 35q-151 0 -235.5 -106.5t-84.5 -272.5z" />
<glyph unicode="A" horiz-adv-x="1327" d="M61 0l506 1421h193l506 -1421h-172l-144 414h-588l-143 -414h-158zM414 561h483l-240 694z" />
<glyph unicode="B" horiz-adv-x="1294" d="M184 0v1421h500q172 0 281.5 -92t109.5 -250q0 -84 -59 -171.5t-125 -112.5q126 -23 213.5 -125.5t87.5 -239.5q0 -178 -135 -301q-144 -129 -412 -129h-461zM354 150h314q101 0 178.5 25.5t127.5 86.5t50 152q0 93 -52.5 158t-136.5 94t-190 29q-28 0 -43 -1l-248 -12 v-532zM354 813l181 6q376 9 376 252q0 108 -75.5 163.5t-208.5 55.5h-273v-477z" />
<glyph unicode="C" horiz-adv-x="1417" d="M223 707q0 157 54 291.5t143 226.5q85 89 215.5 145.5t277.5 56.5q133 0 226 -17t198 -56l-47 -140q-106 37 -170 49.5t-176 12.5q-113 0 -215 -46.5t-166 -117.5q-147 -159 -147 -403q0 -175 73 -304t197 -200q126 -72 295 -72q164 0 332 68l43 -135q-189 -86 -424 -86 q-163 0 -294.5 54.5t-221.5 147.5q-193 205 -193 525z" />
<glyph unicode="D" horiz-adv-x="1560" d="M260 0v1419h469q342 0 528.5 -183t186.5 -525q0 -353 -203 -532t-578 -179h-403zM448 152h240q284 0 421.5 142t137.5 431q0 545 -561 545h-238v-1118z" />
<glyph unicode="E" horiz-adv-x="1138" d="M184 0v1421h832v-149h-662v-465h607v-150h-607v-507h662v-150h-832z" />
<glyph unicode="F" horiz-adv-x="1128" d="M184 0v1421h822v-149h-652v-465h592v-150h-592v-657h-170z" />
<glyph unicode="G" horiz-adv-x="1552" d="M193 698q0 216 92 383.5t244 257.5q156 93 358 93q250 0 468 -121l-68 -127q-78 41 -187 70.5t-196 29.5q-159 0 -284 -82q-257 -168 -257 -490q0 -169 78 -301t203 -204q131 -76 311 -76q179 0 299 117v362h-403v140h569l-6 -557q-184 -212 -521 -212 q-217 0 -368.5 94.5t-240.5 260.5q-91 168 -91 362z" />
<glyph unicode="H" horiz-adv-x="1515" d="M184 0v1417h178v-626h789v626h180v-1417h-180v637h-789v-637h-178z" />
<glyph unicode="I" horiz-adv-x="671" d="M288 0v1421h170v-1421h-170z" />
<glyph unicode="J" horiz-adv-x="919" d="M100 6l26 144q81 -19 144 -19q111 0 185.5 47.5t96.5 132.5q10 42 10 107v1001h170v-993q0 -118 -21 -189.5t-77 -130.5q-117 -123 -339 -123q-99 0 -195 23z" />
<glyph unicode="K" horiz-adv-x="1378" d="M262 0v1421h170v-1421h-170zM454 729l602 692h213l-600 -678l639 -743h-219z" />
<glyph unicode="L" horiz-adv-x="1099" d="M262 0v1421h170v-1271h637v-150h-807z" />
<glyph unicode="M" horiz-adv-x="1751" d="M184 0v1421h240l455 -862l464 862h224v-1421h-170v1178l-436 -770h-170l-437 770v-1178h-170z" />
<glyph unicode="N" horiz-adv-x="1527" d="M184 0v1421h215l775 -1190v1190h169v-1421h-215l-774 1192v-1192h-170z" />
<glyph unicode="O" horiz-adv-x="1660" d="M184 709q0 220 84.5 383.5t233.5 250.5q157 91 356 91q209 0 360 -93t230 -251q84 -170 84 -381q0 -220 -85.5 -384.5t-234.5 -250.5q-156 -90 -354 -90q-210 0 -361 93t-231 251q-82 163 -82 381zM377 709q0 -167 62 -298t169 -202q112 -74 250 -74q148 0 254.5 77.5 t165.5 201.5q61 128 61 295q0 166 -62.5 297.5t-168.5 201.5q-112 74 -250 74q-148 0 -254.5 -77t-165.5 -201q-61 -128 -61 -295z" />
<glyph unicode="P" horiz-adv-x="1296" d="M262 0v1421h446q159 0 241.5 -19t147.5 -81q106 -106 106 -273q0 -162 -69 -269.5t-194 -149.5q-53 -18 -149.5 -28.5t-189.5 -10.5q-81 0 -169 6v-596h-170zM432 745q107 -8 181 -8q59 0 130.5 6.5t101.5 14.5q81 21 133.5 90t52.5 165q0 112 -64 176.5t-173 76.5 q-41 6 -178 6h-184v-527z" />
<glyph unicode="Q" horiz-adv-x="1671" d="M194 711q0 174 58.5 318.5t160.5 240.5q181 166 453 166h10q146 0 269.5 -56.5t207.5 -148.5q176 -197 176 -522q0 -299 -150 -490l181 -178l-91 -96l-188 176q-170 -135 -415 -135q-292 0 -480 188q-89 89 -140.5 229.5t-51.5 307.5zM368 732q0 -199 77 -340.5 t218 -207.5q110 -51 217 -51q172 0 290 94l-315 297l104 109l306 -301q90 137 90 339q0 410 -264 556q-106 59 -226 59q-229 -3 -363 -157.5t-134 -396.5z" />
<glyph unicode="R" d="M184 0v1421h521q118 0 188 -21.5t125 -78.5q104 -110 104 -287q0 -170 -84.5 -281t-234.5 -143l401 -610h-190l-385 594q-5 0 -46.5 -1t-78.5 -1h-150v-592h-170zM354 741h170q124 0 170 4q175 15 234 148q25 56 25 114q0 103 -54 170t-145 85q-52 10 -140 10h-260v-531z " />
<glyph unicode="S" horiz-adv-x="1226" d="M123 76l59 166q259 -95 398 -95q88 0 163 23.5t126 76t51 126.5q0 128 -152 196q-54 25 -221.5 83t-241.5 102q-67 39 -110 107.5t-43 156.5q0 91 42 166.5t107 126.5q156 123 424 123q143 0 332 -58l-56 -153q-176 51 -319 51q-62 0 -121.5 -14.5t-110 -41t-81.5 -70 t-31 -97.5q0 -107 119 -168q107 -55 223 -90q102 -31 168.5 -62t136.5 -82q119 -88 119 -252q0 -118 -78 -225q-146 -190 -471 -190q-125 0 -213 21.5t-219 72.5z" />
<glyph unicode="T" horiz-adv-x="1198" d="M77 1272v149h1119v-149h-476v-1272h-169v1272h-474z" />
<glyph unicode="U" horiz-adv-x="1452" d="M184 457v86q0 23 1 48.5t1 29.5v800h170v-921q0 -99 16 -155.5t62 -108.5t121.5 -80.5t169.5 -28.5q136 0 232 59t124 166q15 59 15 148v921h170v-878q0 -22 1 -51t1 -35q-4 -247 -141.5 -362t-401.5 -115q-320 0 -453 170q-88 109 -88 307z" />
<glyph unicode="V" horiz-adv-x="1325" d="M61 1421h203l406 -1241l405 1241h189l-496 -1421h-211z" />
<glyph unicode="W" horiz-adv-x="2058" d="M51 1421h182l359 -1194l358 1194h172l369 -1194l348 1194h168l-426 -1421h-180l-375 1188l-348 -1188h-180z" />
<glyph unicode="X" horiz-adv-x="1351" d="M100 0l512 741l-453 680h207l360 -534l350 534h195l-449 -676l504 -745h-219l-399 598l-400 -598h-208z" />
<glyph unicode="Y" horiz-adv-x="1247" d="M90 1421h201l363 -587l368 587h191l-484 -747v-674h-170v674z" />
<glyph unicode="Z" horiz-adv-x="1335" d="M140 0v111l873 1161h-844v149h1087v-108l-891 -1163h918v-150h-1143z" />
<glyph unicode="[" horiz-adv-x="757" d="M250 -410v1921h459v-149h-295v-1622h295v-150h-459z" />
<glyph unicode="\" horiz-adv-x="724" d="M20 1421h170l496 -1511h-170z" />
<glyph unicode="]" horiz-adv-x="757" d="M49 -260h295v1622h-295v149h459v-1921h-459v150z" />
<glyph unicode="^" horiz-adv-x="1478" d="M381 1184l344 356l324 -352l-93 -88l-243 264l-244 -258z" />
<glyph unicode="_" horiz-adv-x="1159" d="M150 0v150h860v-150h-860z" />
<glyph unicode="`" horiz-adv-x="1120" d="M274 1462l70 123l506 -309l-64 -109z" />
<glyph unicode="a" horiz-adv-x="1005" d="M92 246q0 116 68 190t174 103q145 37 373 43v8q0 101 -19 153q-44 117 -226 117q-62 0 -155 -16t-157 -37v133q158 61 331 61q174 0 256 -55q78 -52 107.5 -117.5t29.5 -187.5v-641h-124l-37 92q-139 -116 -304 -116q-132 0 -224.5 76t-92.5 194zM258 265q0 -92 109 -144 q27 -13 67 -13q32 0 66 7q116 20 207 108v236q-195 -6 -263 -19q-114 -24 -163 -102q-23 -37 -23 -73z" />
<glyph unicode="b" horiz-adv-x="1132" d="M133 0h121l29 70q136 -88 280 -88q221 0 339 136.5t118 364.5q0 257 -141 398q-134 131 -338 131q-127 0 -238 -47v409h-170v-1374zM303 182v649q107 46 221 46q156 0 239 -103.5t83 -275.5q0 -173 -81.5 -275t-238.5 -102q-70 0 -117.5 14.5t-105.5 46.5z" />
<glyph unicode="c" horiz-adv-x="956" d="M116 477q0 234 121 379q125 150 382 150q117 0 255 -60l-41 -119q-113 40 -206 40q-174 0 -262 -92.5t-88 -268.5q0 -180 78 -274.5t242 -114.5q23 -3 47 -3q83 0 179 33l38 -112q-140 -55 -268 -55q-1 0 -4 -0.5t-5 -0.5q-226 0 -347 130.5t-121 367.5z" />
<glyph unicode="d" horiz-adv-x="1179" d="M115 483q0 257 141 398q134 131 338 131q126 0 237 -47v409h170v-1374h-120l-29 70q-136 -88 -281 -88q-221 0 -338.5 136.5t-117.5 364.5zM289 498q0 -173 81 -275t238 -102q70 0 117.5 14.5t105.5 46.5v652q-100 43 -221 43q-159 0 -240 -104t-81 -275z" />
<glyph unicode="e" horiz-adv-x="1071" d="M122 477q0 220 114 373q121 154 334 154q195 0 300.5 -118.5t105.5 -332.5v-90l-11 -17h-671q9 -140 96 -233q84 -90 274 -90q134 0 273 45v-133q-151 -53 -318 -53q-241 0 -369 127.5t-128 367.5zM298 575h510q0 129 -57 212t-167 83q-130 0 -200.5 -82.5t-85.5 -212.5z " />
<glyph unicode="f" horiz-adv-x="761" d="M51 858v129h144v100q0 131 30 187q89 155 299 155q113 0 238 -38l-27 -123q-91 25 -160 25q-85 0 -142.5 -42.5t-67.5 -105.5q-5 -35 -5 -64v-94h330v-129h-330l2 -858h-165l-2 858h-144z" />
<glyph unicode="g" horiz-adv-x="1110" d="M129 478q0 186 74 311.5t211 183.5q80 33 165 33q110 0 234 -56l47 -20l21 57h114v-1034q0 -138 -28.5 -218t-102.5 -151q-61 -58 -154 -92t-204 -34q-71 0 -155 18.5t-146 46.5l45 119q126 -47 235 -47q149 0 238 75.5t104 210.5q4 29 4 137v29q-122 -66 -262 -66 q-227 0 -358 187q-82 119 -82 310zM287 499q0 -119 47 -210t129 -137q67 -37 148 -37q119 0 220 55v649q-128 52 -228 52q-154 0 -235 -102.5t-81 -269.5z" />
<glyph unicode="h" horiz-adv-x="1064" d="M123 0v1372h170v-446q182 90 330 90q154 0 236.5 -91.5t82.5 -250.5v-674h-166v635q0 126 -49.5 182.5t-167.5 56.5q-117 0 -266 -73v-801h-170z" />
<glyph unicode="i" horiz-adv-x="413" d="M123 0v989h168v-989h-168zM123 1200v170h168v-170h-168z" />
<glyph unicode="j" horiz-adv-x="485" d="M10 -414q162 76 162 255v14v6l-2 1126h164l4 -1118q0 -98 -9 -137.5t-40 -100.5q-55 -111 -217 -170zM168 1200v170h168v-170h-168z" />
<glyph unicode="k" horiz-adv-x="1030" d="M139 0v1376h164v-1376h-164zM319 547l437 461h180l-430 -445l457 -563h-197z" />
<glyph unicode="l" horiz-adv-x="630" d="M123 215l1 1159h164l-1 -1099q0 -28 1.5 -44.5t8 -37.5t20 -32t38.5 -19t62 -8q47 0 118 22v-127q-6 -2 -32 -12t-46 -17t-54 -13.5t-67 -6.5q-96 0 -153.5 65t-59.5 170z" />
<glyph unicode="m" horiz-adv-x="1603" d="M123 0v983h117l32 -74q94 60 164 80q74 21 138 21q162 0 253 -129q130 87 201 106q76 22 145 22q148 0 228 -93t80 -246v-670h-166v629q0 243 -194 243q-105 0 -251 -88q11 -40 11 -114v-670h-166v629q0 243 -195 243q-97 0 -229 -75v-797h-168z" />
<glyph unicode="n" horiz-adv-x="1064" d="M123 0v983h117l32 -74q187 99 351 99q153 0 237 -90q82 -88 82 -248v-670h-166v629q0 127 -49 182t-164 55q-121 0 -272 -71v-795h-168z" />
<glyph unicode="o" horiz-adv-x="1165" d="M94 492q0 235 126 373.5t351 138.5t349 -137.5t124 -372.5q0 -234 -127.5 -374t-351.5 -140q-223 0 -347 138.5t-124 373.5zM264 492q0 -106 34 -191t104 -136.5t167 -51.5q146 0 225.5 106.5t79.5 272.5t-80 273t-225 107q-144 0 -224.5 -108.5t-80.5 -271.5z" />
<glyph unicode="p" horiz-adv-x="1163" d="M178 -535v1520h121l31 -67q136 88 278 88q143 0 250 -66q209 -134 209 -436q0 -255 -143 -395q-139 -136 -338 -136q-120 0 -238 50v-558h-170zM348 154q111 -48 221 -48q154 0 239 106.5t85 276.5q0 172 -82.5 274.5t-239.5 102.5q-70 0 -117.5 -14.5t-105.5 -46.5v-651 z" />
<glyph unicode="q" horiz-adv-x="1155" d="M100 504q0 302 209 436q107 66 250 66t279 -88l30 67h121v-1520h-170v558q-118 -50 -237 -50q-199 0 -338 136q-144 141 -144 395zM274 489q0 -170 85 -276.5t239 -106.5q110 0 221 48v651q-58 32 -105.5 46.5t-117.5 14.5q-157 0 -239.5 -102.5t-82.5 -274.5z" />
<glyph unicode="r" horiz-adv-x="800" d="M180 0v985h123l33 -82q131 101 274 101q67 0 135 -19v-162h-20q-84 33 -150 33q-115 0 -225 -72v-784h-170z" />
<glyph unicode="s" horiz-adv-x="1017" d="M162 37v149q173 -67 348 -67q58 0 105 13t79.5 45t32.5 79q0 59 -57 98q-67 47 -133 66l-147 45q-43 17 -70.5 30.5t-59 35t-49 45.5t-29.5 60.5t-12 81.5q0 169 187 243q95 36 215 36q128 0 276 -43v-137q-149 41 -245 41q-95 0 -144 -10t-86 -45q-33 -29 -33 -64 q0 -40 14 -59.5t46 -40.5q31 -22 90 -43l88 -33q113 -41 172.5 -68.5t85.5 -56.5q67 -73 67 -177q0 -84 -51 -150q-104 -131 -327 -131q-231 0 -363 57z" />
<glyph unicode="t" horiz-adv-x="792" d="M51 850v139h166v246l166 8v-254h328v-139h-328v-531q0 -104 34.5 -151t125.5 -47q85 0 168 22v-125q-109 -36 -217 -36q-149 0 -213 81t-64 244v543h-166z" />
<glyph unicode="u" horiz-adv-x="1064" d="M123 313v670h166v-629q0 -125 48.5 -181t166.5 -56q119 0 270 71v795h168v-983h-117l-32 74q-187 -99 -349 -99q-154 0 -237.5 89.5t-83.5 248.5z" />
<glyph unicode="v" horiz-adv-x="1007" d="M45 991h180l273 -776l10 -53l8 53l275 776h172l-369 -991h-180z" />
<glyph unicode="w" horiz-adv-x="1673" d="M55 987h174l269 -827l264 827h162l254 -827l268 827h174l-360 -987h-166l-258 801l-265 -801h-155z" />
<glyph unicode="x" horiz-adv-x="1046" d="M66 987h190l279 -391l268 391h176l-365 -504l344 -483h-190l-264 371l-252 -371h-174l346 485z" />
<glyph unicode="y" horiz-adv-x="1038" d="M45 987h166l309 -837l309 837h156l-565 -1517h-174l203 491z" />
<glyph unicode="z" horiz-adv-x="1077" d="M150 0v86l538 772h-538v129h753v-86l-541 -772h566v-129h-778z" />
<glyph unicode="{" horiz-adv-x="796" d="M90 481v137q93 16 159 91t81 178q16 110 16 194q27 291 232 394q64 30 135 36l28 -129q-228 -35 -249 -360q-7 -104 -21 -207q-12 -79 -59.5 -150.5t-110.5 -113.5q161 -106 182 -361q11 -99 11 -124q27 -321 247 -349l-28 -129q-156 13 -253 128.5t-114 289.5 q-4 30 -9 105t-7 100q-10 103 -79 179t-161 91z" />
<glyph unicode="|" horiz-adv-x="882" d="M360 -307v1909h164v-1909h-164zM524 -307v1909v-1909z" />
<glyph unicode="}" horiz-adv-x="796" d="M55 -283q223 29 250 349q0 84 21 208q15 86 61 160.5t109 116.5q-144 93 -174 297q-6 36 -15 182q-9 150 -71.5 241.5t-180.5 110.5l31 129q107 -7 187 -66.5t123.5 -152.5t54.5 -211q0 -4 2.5 -27.5t3.5 -45.5q4 -82 15 -138.5t38 -105.5q68 -125 199 -146v-137 q-130 -21 -197 -141q-20 -36 -32 -83.5t-15.5 -84.5t-7.5 -100t-8 -99q-16 -154 -117.5 -263.5t-245.5 -121.5z" />
<glyph unicode="~" horiz-adv-x="1054" d="M164 592l16 86q40 203 183 203q54 0 95 -22t87 -62l35 -33q63 -63 105 -63q22 0 40 14q16 13 25 29.5t12 29.5t12 55l10 52l107 -17l-17 -84q-40 -203 -181 -203q-53 0 -95 22.5t-88 62.5l-35 30q-21 21 -31.5 30.5t-32 22t-40.5 12.5q-18 0 -32 -7.5t-22.5 -17.5 t-16 -30t-11 -34t-8.5 -41l-9 -52z" />
<glyph unicode="&#xa1;" horiz-adv-x="649" d="M225 1120v201h201v-201h-201zM240 -410v1272h170v-1272h-170z" />
<glyph unicode="&#xa2;" horiz-adv-x="1019" d="M150 711q0 220 103 360t290 166v274h121v-270q125 -6 241 -57l-39 -121q-110 39 -205 39q-174 0 -263.5 -90.5t-89.5 -261.5q0 -351 323 -390q14 -2 42 -2q82 0 181 35l41 -112q-109 -45 -231 -54v-293h-121v295q-185 20 -289 147t-104 335z" />
<glyph unicode="&#xa3;" d="M152 0v135h243v527h-176v135h176v141q0 122 23 199q42 131 168 213t297 82q108 0 233 -39l-47 -121q-81 22 -172 22q-135 0 -221 -69q-101 -81 -113 -217q-4 -62 -4 -97v-114h531v-135h-531v-527h590v-135h-997z" />
<glyph unicode="&#xa4;" d="M184 1081l125 125l168 -166q77 47 170 47q98 0 176 -47l166 164l125 -125l-166 -164q47 -77 47 -172q0 -96 -47 -174l164 -166l-125 -124l-164 165q-82 -49 -176 -49q-93 0 -170 47l-166 -166l-125 125l166 166q-49 81 -49 172q0 94 49 176zM451 739q0 -83 57 -142.5 t139 -59.5q86 0 144.5 61t58.5 149q0 78 -60.5 138.5t-138.5 60.5q-84 0 -142 -61t-58 -146z" />
<glyph unicode="&#xa5;" d="M143 1421h185l321 -604l332 604h176l-428 -723h283v-125h-289v-198h289v-125h-289v-250h-160v250h-274v125h274v198h-274v125h266z" />
<glyph unicode="&#xa6;" horiz-adv-x="882" d="M360 -307v768h164v-768h-164zM360 838v764h164v-764h-164z" />
<glyph unicode="&#xa7;" horiz-adv-x="1134" d="M160 45l47 125q171 -61 303 -61q276 0 276 178q0 81 -116 127q-41 16 -115 37q-159 46 -244 96q-116 70 -116 205q0 110 88 192q-86 71 -86 182q0 91 59 162q50 63 149 104.5t209 41.5q111 0 138 -4l39 -7q3 -1 15.5 -2.5t20.5 -3.5l31 -8q3 -1 7.5 -2t12 -2.5t13.5 -3.5 l31 -10l-45 -131q-115 38 -242 38q-51 0 -95 -7.5t-82.5 -24.5t-60.5 -47.5t-22 -71.5q0 -51 46.5 -87t108.5 -56q173 -56 289 -109q65 -30 110.5 -85t45.5 -128q0 -122 -84 -209q84 -69 84 -168q0 -157 -133 -248q-112 -77 -318 -77q-199 0 -364 65zM375 782 q0 -48 20 -73.5t62 -46.5q64 -32 184 -72q78 -25 102 -35q43 43 43 107q0 100 -192 155l-86 25q-27 8 -84 28q-49 -40 -49 -88z" />
<glyph unicode="&#xa8;" horiz-adv-x="1198" d="M283 1235v184h186v-184h-186zM731 1235v184h187v-184h-187z" />
<glyph unicode="&#xa9;" horiz-adv-x="1759" d="M170 682q0 148 58.5 277.5t150.5 218.5q91 89 221.5 145.5t276.5 56.5q148 0 279 -56t222 -144q93 -90 152 -219t59 -279q0 -148 -58.5 -276.5t-150.5 -217.5q-93 -89 -222 -145.5t-277 -56.5q-149 0 -278.5 56t-221.5 146q-94 91 -152.5 218t-58.5 276zM303 682 q0 -120 47.5 -223t122.5 -176q75 -72 181.5 -118t226.5 -46t224.5 45.5t180.5 118.5q75 73 122.5 176t47.5 223q0 121 -47.5 225t-122.5 176q-76 73 -180.5 118.5t-224.5 45.5t-226.5 -46t-181.5 -118t-122.5 -176t-47.5 -225zM559 670q0 167 86 276q87 109 280 109 q90 0 183 -43l-31 -86q-81 29 -156 29q-121 0 -183.5 -68t-62.5 -193q0 -134 66.5 -206t196.5 -72q62 0 131 24l31 -82q-98 -39 -197 -39q-164 0 -254 91.5t-90 259.5z" />
<glyph unicode="&#xaa;" horiz-adv-x="765" d="M174 915q0 36 10 64t25.5 47t43 33t53 21.5t65.5 12.5t71.5 6.5t79.5 2.5v18q0 67 -20 90q-44 50 -123 50t-168 -27l-18 70q95 36 182 36q127 0 186.5 -47.5t59.5 -161.5l-3 -370h-67l-23 53q-66 -72 -151 -72q-88 0 -145.5 46.5t-57.5 127.5zM272 920q0 -45 38 -72 t93 -27q62 0 119 82v117h-18q-158 0 -203 -39q-29 -23 -29 -61z" />
<glyph unicode="&#xab;" horiz-adv-x="935" d="M76 623l254 364h184l-272 -364l272 -365h-184zM446 623l254 364h187l-275 -364l275 -365h-187z" />
<glyph unicode="&#xac;" horiz-adv-x="1398" d="M125 584v147h1151v-448h-150v301h-1001z" />
<glyph unicode="&#xad;" horiz-adv-x="1073" d="M219 590v137h635v-137h-635z" />
<glyph unicode="&#xae;" horiz-adv-x="1230" d="M90 1042q0 110 44 207t112 162q157 150 370 150q110 0 206 -41.5t165 -108.5q68 -65 112 -162t44 -207q0 -109 -43.5 -205t-112.5 -161q-69 -66 -165.5 -109t-205.5 -43t-204.5 42.5t-165.5 109.5q-69 65 -112.5 161t-43.5 205zM201 1042q0 -168 123 -288 q120 -117 292 -117q171 0 291 117q123 120 123 288q0 116 -57.5 210.5t-152.5 146t-206 51.5q-168 0 -290 -119q-123 -120 -123 -289zM426 776v541l223 4h8q77 0 124 -41.5t47 -116.5q0 -63 -28 -106t-79 -60l113 -221h-101l-100 209q-10 0 -39.5 -1t-48.5 -1h-25v-207h-94z M520 1061h33q13 0 37 -0.5t33.5 0t27 1t25 3t18.5 6.5t17 10t12 15.5t10 21.5q7 18 7 37q0 35 -30.5 58.5t-64.5 25.5h-125v-178z" />
<glyph unicode="&#xaf;" horiz-adv-x="1398" d="M285 1491v149h829v-149h-829z" />
<glyph unicode="&#xb0;" horiz-adv-x="587" d="M76 1235q0 92 64 157.5t155 65.5q89 0 154 -66.5t65 -156.5q0 -91 -64.5 -158t-154.5 -67q-91 0 -155 66t-64 159zM166 1235q0 -56 36 -94.5t91 -38.5q54 0 91.5 39t37.5 94q0 52 -37.5 92.5t-89.5 40.5q-54 0 -91.5 -39t-37.5 -94z" />
<glyph unicode="&#xb1;" horiz-adv-x="1398" d="M219 150v137h961v-137h-961zM219 872v138h408v411h145v-411h408v-138h-408v-411h-145v411h-408z" />
<glyph unicode="&#xb2;" horiz-adv-x="798" d="M129 1460q128 64 238 64q103 0 176 -54t73 -145q0 -34 -11 -65t-34.5 -60.5t-40 -46.5t-47.5 -45l-71 -68q-84 -75 -125 -178h342v-104h-484l2 65q43 136 132 236q61 69 127 127q92 80 92 125q0 47 -44.5 77.5t-99.5 30.5q-61 0 -186 -49z" />
<glyph unicode="&#xb3;" horiz-adv-x="798" d="M125 795l33 96q125 -33 178 -33q62 0 115 36t53 89q0 51 -47 92q-45 39 -156 39h-25v103q154 3 189 71q8 16 8 45q0 27 -33 53q-35 27 -98 27q-65 0 -164 -45l-39 94q123 60 219 60q98 0 164 -53t66 -144q0 -90 -84 -145q114 -48 114 -168q0 -118 -82 -190t-206 -72h-2 q-88 0 -203 45z" />
<glyph unicode="&#xb4;" horiz-adv-x="1120" d="M274 1276l504 309l70 -123l-512 -295z" />
<glyph unicode="&#xb5;" horiz-adv-x="1185" d="M190 -410v1397h164v-534q0 -84 8 -131.5t35 -94.5q63 -115 197 -115q94 0 250 76v799h164v-987h-115l-31 68q-148 -95 -282 -95q-137 0 -226 80v-463h-164z" />
<glyph unicode="&#xb6;" horiz-adv-x="1337" d="M129 1133q0 139 69.5 234t188.5 124q84 20 223 20h539v-1511h-170v1362h-242v-1362h-170l-2 686q-101 9 -160 26.5t-114 59.5q-75 56 -118.5 149.5t-43.5 211.5z" />
<glyph unicode="&#xb7;" horiz-adv-x="589" d="M190 629v209h209v-209h-209z" />
<glyph unicode="&#xb8;" horiz-adv-x="1099" d="M385 -446l27 92l30 -11q117 -36 172 -36q106 3 106 79q0 22 -18 42.5t-36 27.5q-26 11 -52 19l-125 38l58 218h127l-39 -158l24 -8q78 -24 118.5 -62t40.5 -113t-59 -127t-142 -52q-34 0 -82 10q-39 9 -115 30z" />
<glyph unicode="&#xb9;" horiz-adv-x="542" d="M59 1458l193 53h90v-751h-113v643l-143 -41z" />
<glyph unicode="&#xba;" horiz-adv-x="761" d="M68 1147q0 182 98 280q93 93 207 93q56 0 91.5 -8.5t76.5 -32.5q79 -45 116 -126t37 -210q0 -168 -83.5 -279.5t-229.5 -111.5q-132 0 -217 82q-96 89 -96 313zM180 1149q0 -198 96 -264q51 -33 95 -33q49 0 81 12.5t60 40.5q70 67 70 238q0 180 -97 243q-45 29 -94 29 q-211 0 -211 -266z" />
<glyph unicode="&#xbb;" horiz-adv-x="935" d="M49 258l275 365l-275 364h187l253 -364l-253 -365h-187zM422 258l272 365l-272 364h184l254 -364l-254 -365h-184z" />
<glyph unicode="&#xbc;" horiz-adv-x="1769" d="M150 1368l192 53h111v-803h-134v672l-139 -39zM358 0l822 1421h176l-821 -1421h-177zM1024 195v90l367 551h157v-531h107v-110h-107v-195h-133v195h-391zM1174 305h241v383z" />
<glyph unicode="&#xbd;" horiz-adv-x="1796" d="M150 1368l192 53h111v-803h-134v672l-139 -39zM358 0l822 1421h176l-821 -1421h-177zM1139 772q146 70 260 70q113 0 193.5 -59t80.5 -158q0 -107 -112 -209l-68 -64q-77 -69 -114.5 -115.5t-69.5 -119.5h379v-117h-533v72q61 198 268 381q82 70 101 102q18 30 18 53 q0 52 -48 85.5t-110 33.5q-72 0 -204 -53z" />
<glyph unicode="&#xbe;" horiz-adv-x="1849" d="M125 649l37 107q134 -35 198 -35q69 0 125 39.5t56 101.5q0 51 -33 80q-62 59 -189 59h-26v113h16q109 3 154 39t45 78q0 49 -41.5 74.5t-104.5 25.5q-73 0 -178 -51l-45 104q132 66 242 66t182 -57.5t72 -157.5q0 -101 -94 -162q129 -53 129 -184q0 -129 -92 -209 t-228 -80h-4q-99 0 -221 49zM451 0l821 1421h174l-819 -1421h-176zM1106 195v90l367 551h155v-531h109v-110h-109v-195h-133v195h-389zM1255 305h240v383z" />
<glyph unicode="&#xbf;" horiz-adv-x="1046" d="M127 258q0 -121 65.5 -210.5t163.5 -139.5q94 -49 193 -49q168 0 354 88l-51 123q-165 -68 -289 -68q-114 0 -192 61.5t-78 161.5q0 113 100 189l62 49q82 67 116 119q57 81 82 172.5t25 232.5h-170q0 -91 -14.5 -158.5t-47.5 -121.5t-69.5 -91.5t-97.5 -87.5 q-39 -29 -74 -67q-78 -81 -78 -203zM494 1221h198v198h-198v-198z" />
<glyph unicode="&#xc0;" horiz-adv-x="1327" d="M61 0l506 1421h193l506 -1421h-172l-144 414h-588l-143 -414h-158zM389 1806l70 123l506 -309l-64 -109zM414 561h483l-240 694z" />
<glyph unicode="&#xc1;" horiz-adv-x="1327" d="M61 0l506 1421h193l506 -1421h-172l-144 414h-588l-143 -414h-158zM362 1620l504 309l70 -123l-512 -295zM414 561h483l-240 694z" />
<glyph unicode="&#xc2;" horiz-adv-x="1327" d="M61 0l506 1421h193l506 -1421h-172l-144 414h-588l-143 -414h-158zM340 1567l344 356l324 -352l-93 -88l-243 264l-244 -258zM414 561h483l-240 694z" />
<glyph unicode="&#xc3;" horiz-adv-x="1327" d="M61 0l506 1421h193l506 -1421h-172l-144 414h-588l-143 -414h-158zM387 1587l16 86q40 204 183 204q54 0 95 -22t87 -63l35 -33q62 -62 105 -62q23 0 40 13q31 24 46 103l3 12l11 51l106 -16l-16 -84q-40 -204 -181 -204q-53 0 -96 22.5t-88 62.5l-35 31 q-20 20 -31.5 30.5t-32.5 22t-40 11.5q-18 0 -32 -7.5t-22.5 -17.5t-16 -30t-11 -34t-8.5 -41l-8 -51zM414 561h483l-240 694z" />
<glyph unicode="&#xc4;" horiz-adv-x="1327" d="M61 0l506 1421h193l506 -1421h-172l-144 414h-588l-143 -414h-158zM346 1712v184h186v-184h-186zM414 561h483l-240 694zM795 1712v184h186v-184h-186z" />
<glyph unicode="&#xc5;" horiz-adv-x="1327" d="M61 0l506 1421h193l506 -1421h-172l-144 414h-588l-143 -414h-158zM404 1617q0 104 77.5 179.5t186.5 75.5q107 0 185.5 -76t78.5 -179q0 -104 -78 -180.5t-186 -76.5q-110 0 -187 75.5t-77 181.5zM414 561h483l-240 694zM513 1617q0 -64 43.5 -108t109.5 -44 q65 0 110 45t45 107q0 60 -45.5 106t-107.5 46q-65 0 -110 -44.5t-45 -107.5z" />
<glyph unicode="&#xc6;" horiz-adv-x="1914" d="M129 0l555 1421h1071v-149h-618v-465h563v-150h-563v-507h618v-150h-788v414h-514l-160 -414h-164zM510 561h457v711h-183z" />
<glyph unicode="&#xc7;" horiz-adv-x="1417" d="M223 707q0 157 54 291.5t143 226.5q85 89 215.5 145.5t277.5 56.5q133 0 226 -17t198 -56l-47 -140q-106 37 -170 49.5t-176 12.5q-113 0 -215 -46.5t-166 -117.5q-147 -159 -147 -403q0 -175 73 -304t197 -200q126 -72 295 -72q164 0 332 68l43 -135q-189 -86 -424 -86 q-163 0 -294.5 54.5t-221.5 147.5q-193 205 -193 525zM583 -453l31 105l29 -10q136 -41 182 -41q73 3 90 47q13 29 -2.5 54.5t-38.5 37.5q-13 7 -51 18l-137 41l61 226l144 -7l-37 -153q44 -14 71.5 -26.5t54.5 -33.5t40 -52t13 -73q0 -79 -63 -132.5t-152 -53.5 q-41 0 -77 8q-11 2 -125 35z" />
<glyph unicode="&#xc8;" horiz-adv-x="1138" d="M184 0v1421h832v-149h-662v-465h607v-150h-607v-507h662v-150h-832zM301 1804l70 123l506 -309l-64 -109z" />
<glyph unicode="&#xc9;" horiz-adv-x="1138" d="M184 0v1421h832v-149h-662v-465h607v-150h-607v-507h662v-150h-832zM342 1618l504 309l69 -123l-512 -295z" />
<glyph unicode="&#xca;" horiz-adv-x="1138" d="M184 0v1421h832v-149h-662v-465h607v-150h-607v-507h662v-150h-832zM268 1575l344 356l324 -352l-92 -88l-244 264l-244 -258z" />
<glyph unicode="&#xcb;" horiz-adv-x="1138" d="M184 0v1421h832v-149h-662v-465h607v-150h-607v-507h662v-150h-832zM283 1712v184h186v-184h-186zM731 1712v184h187v-184h-187z" />
<glyph unicode="&#xcc;" horiz-adv-x="671" d="M105 1804l70 123l506 -309l-64 -109zM288 0v1421h170v-1421h-170z" />
<glyph unicode="&#xcd;" horiz-adv-x="671" d="M19 1620l504 309l70 -123l-512 -295zM288 0v1421h170v-1421h-170z" />
<glyph unicode="&#xce;" horiz-adv-x="671" d="M15 1567l344 356l324 -352l-92 -88l-244 264l-244 -258zM288 0v1421h170v-1421h-170z" />
<glyph unicode="&#xcf;" horiz-adv-x="669" d="M88 1638v187h184v-187h-184zM291 0v1421h170v-1421h-170zM477 1638v187h185v-187h-185z" />
<glyph unicode="&#xd0;" horiz-adv-x="1603" d="M117 657v152h219v612h395q256 0 411.5 -66t256.5 -222q93 -142 93 -371q0 -366 -182 -559.5t-540 -202.5h-434v657h-219zM506 150h207q109 0 205 14q113 17 200 83t135 163q68 136 68 329q0 205 -117.5 350t-290.5 175q-44 8 -133 8h-274v-463h256v-152h-256v-507z" />
<glyph unicode="&#xd1;" horiz-adv-x="1527" d="M184 0v1421h215l775 -1190v1190h169v-1421h-215l-774 1192v-1192h-170zM528 1587l17 86q40 204 182 204q54 0 95 -22t87 -63l35 -33q62 -62 105 -62q24 0 41 13q31 24 46 103l3 12l10 51l106 -16l-16 -84q-40 -204 -181 -204q-53 0 -96 22.5t-88 62.5l-34 31 q-64 64 -105 64q-18 0 -32 -7.5t-22.5 -17.5t-16 -30t-11 -34t-8.5 -41l-8 -51z" />
<glyph unicode="&#xd2;" horiz-adv-x="1660" d="M184 709q0 220 84.5 383.5t233.5 250.5q157 91 356 91q209 0 360 -93t230 -251q84 -170 84 -381q0 -220 -85.5 -384.5t-234.5 -250.5q-156 -90 -354 -90q-210 0 -361 93t-231 251q-82 163 -82 381zM377 709q0 -167 62 -298t169 -202q112 -74 250 -74q148 0 254.5 77.5 t165.5 201.5q61 128 61 295q0 166 -62.5 297.5t-168.5 201.5q-112 74 -250 74q-148 0 -254.5 -77t-165.5 -201q-61 -128 -61 -295zM645 1808l70 123l506 -309l-64 -109z" />
<glyph unicode="&#xd3;" horiz-adv-x="1660" d="M184 709q0 220 84.5 383.5t233.5 250.5q157 91 356 91q209 0 360 -93t230 -251q84 -170 84 -381q0 -220 -85.5 -384.5t-234.5 -250.5q-156 -90 -354 -90q-210 0 -361 93t-231 251q-82 163 -82 381zM377 709q0 -167 62 -298t169 -202q112 -74 250 -74q148 0 254.5 77.5 t165.5 201.5q61 128 61 295q0 166 -62.5 297.5t-168.5 201.5q-112 74 -250 74q-148 0 -254.5 -77t-165.5 -201q-61 -128 -61 -295zM584 1620l503 309l70 -123l-512 -295z" />
<glyph unicode="&#xd4;" horiz-adv-x="1660" d="M184 709q0 220 84.5 383.5t233.5 250.5q157 91 356 91q209 0 360 -93t230 -251q84 -170 84 -381q0 -220 -85.5 -384.5t-234.5 -250.5q-156 -90 -354 -90q-210 0 -361 93t-231 251q-82 163 -82 381zM377 709q0 -167 62 -298t169 -202q112 -74 250 -74q148 0 254.5 77.5 t165.5 201.5q61 128 61 295q0 166 -62.5 297.5t-168.5 201.5q-112 74 -250 74q-148 0 -254.5 -77t-165.5 -201q-61 -128 -61 -295zM547 1567l344 356l323 -352l-92 -88l-243 264l-244 -258z" />
<glyph unicode="&#xd5;" horiz-adv-x="1660" d="M184 709q0 220 84.5 383.5t233.5 250.5q157 91 356 91q209 0 360 -93t230 -251q84 -170 84 -381q0 -220 -85.5 -384.5t-234.5 -250.5q-156 -90 -354 -90q-210 0 -361 93t-231 251q-82 163 -82 381zM377 709q0 -167 62 -298t169 -202q112 -74 250 -74q148 0 254.5 77.5 t165.5 201.5q61 128 61 295q0 166 -62.5 297.5t-168.5 201.5q-112 74 -250 74q-148 0 -254.5 -77t-165.5 -201q-61 -128 -61 -295zM549 1587l16 86q40 204 183 204q54 0 95 -22t87 -63l35 -33q62 -62 105 -62q23 0 40 13q31 24 46 103l3 12l10 51l107 -16l-16 -84 q-40 -204 -182 -204q-53 0 -95 22.5t-88 62.5l-35 31q-20 20 -31.5 30.5t-32.5 22t-40 11.5q-18 0 -32 -7.5t-22.5 -17.5t-16 -30t-11 -34t-8.5 -41l-9 -51z" />
<glyph unicode="&#xd6;" horiz-adv-x="1660" d="M184 709q0 220 84.5 383.5t233.5 250.5q157 91 356 91q209 0 360 -93t230 -251q84 -170 84 -381q0 -220 -85.5 -384.5t-234.5 -250.5q-156 -90 -354 -90q-210 0 -361 93t-231 251q-82 163 -82 381zM377 709q0 -167 62 -298t169 -202q112 -74 250 -74q148 0 254.5 77.5 t165.5 201.5q61 128 61 295q0 166 -62.5 297.5t-168.5 201.5q-112 74 -250 74q-148 0 -254.5 -77t-165.5 -201q-61 -128 -61 -295zM555 1712v184h186v-184h-186zM1004 1712v184h186v-184h-186z" />
<glyph unicode="&#xd7;" d="M182 299l355 354l-347 346l105 107l360 -363l355 357l104 -107l-352 -354l346 -346l-104 -107l-363 363l-352 -354z" />
<glyph unicode="&#xd8;" horiz-adv-x="1755" d="M154 70l190 182q-129 188 -129 457q0 212 82.5 377t234.5 257.5t350 92.5h9q149 0 273.5 -55.5t207.5 -147.5l184 176l64 -66l-190 -182q121 -176 121 -427q0 -220 -83 -389.5t-238.5 -264t-361.5 -94.5q-277 0 -467 196l-184 -178zM389 730q0 -205 86 -353l772 737 q-59 72 -155 122t-205 50q-229 -3 -363.5 -158t-134.5 -398zM528 301q63 -75 157.5 -121.5t209.5 -46.5q116 0 211.5 52t155.5 134q114 153 114 367q0 211 -78 352z" />
<glyph unicode="&#xd9;" horiz-adv-x="1452" d="M184 457v86q0 23 1 48.5t1 29.5v800h170v-921q0 -99 16 -155.5t62 -108.5t121.5 -80.5t169.5 -28.5q136 0 232 59t124 166q15 59 15 148v921h170v-878q0 -22 1 -51t1 -35q-4 -247 -141.5 -362t-401.5 -115q-320 0 -453 170q-88 109 -88 307zM449 1804l69 123l506 -309 l-63 -109z" />
<glyph unicode="&#xda;" horiz-adv-x="1452" d="M184 457v86q0 23 1 48.5t1 29.5v800h170v-921q0 -99 16 -155.5t62 -108.5t121.5 -80.5t169.5 -28.5q136 0 232 59t124 166q15 59 15 148v921h170v-878q0 -22 1 -51t1 -35q-4 -247 -141.5 -362t-401.5 -115q-320 0 -453 170q-88 109 -88 307zM457 1620l504 309l69 -123 l-512 -295z" />
<glyph unicode="&#xdb;" horiz-adv-x="1452" d="M184 457v86q0 23 1 48.5t1 29.5v800h170v-921q0 -99 16 -155.5t62 -108.5t121.5 -80.5t169.5 -28.5q136 0 232 59t124 166q15 59 15 148v921h170v-878q0 -22 1 -51t1 -35q-4 -247 -141.5 -362t-401.5 -115q-320 0 -453 170q-88 109 -88 307zM395 1567l344 356l324 -352 l-92 -88l-244 264l-244 -258z" />
<glyph unicode="&#xdc;" horiz-adv-x="1452" d="M184 457v86q0 23 1 48.5t1 29.5v800h170v-921q0 -99 16 -155.5t62 -108.5t121.5 -80.5t169.5 -28.5q136 0 232 59t124 166q15 59 15 148v921h170v-878q0 -22 1 -51t1 -35q-4 -247 -141.5 -362t-401.5 -115q-320 0 -453 170q-88 109 -88 307zM408 1712v184h186v-184h-186z M856 1712v184h186v-184h-186z" />
<glyph unicode="&#xdd;" horiz-adv-x="1247" d="M90 1421h201l363 -587l368 587h191l-484 -747v-674h-170v674zM357 1620l503 309l70 -123l-512 -295z" />
<glyph unicode="&#xde;" horiz-adv-x="1325" d="M291 0v1421h170v-274q152 14 262 14q121 0 211.5 -19t160 -61t105.5 -116t36 -179q0 -170 -75 -280t-209 -148q-45 -14 -141.5 -23.5t-180.5 -9.5q-64 0 -169 7v-332h-170zM461 483q117 -9 206 -9q77 0 135.5 7.5t109.5 26t83.5 50t50.5 80.5t18 116q0 73 -28.5 124 t-83 78.5t-122.5 39.5t-159 12q-86 0 -210 -11v-514z" />
<glyph unicode="&#xdf;" horiz-adv-x="1259" d="M201 1024q0 182 107.5 294t293.5 112q97 0 169 -42t116 -110q55 -82 55 -176q0 -97 -51 -160q-42 -51 -86 -84q-7 -5 -26.5 -18.5t-29 -20.5t-24.5 -20.5t-23 -24t-14 -25t-6 -28.5q0 -40 16 -62q23 -36 103 -67l71 -27q89 -32 131 -55t78 -68q60 -69 60 -182 q0 -66 -28 -122t-69 -93q-84 -72 -231 -72q-148 0 -309 47l31 117q161 -31 243 -31q91 0 140 35t49 117q0 32 -11 58.5t-26 43.5t-43.5 33.5t-49 25t-57.5 21.5l-73 27q-134 52 -172 147q-17 46 -17 88q0 22 2.5 41.5t9.5 37t13 31t18.5 28.5t19.5 24t24 23t24 19.5 t26.5 20.5t24.5 19q45 35 49 39q53 47 53 117t-64.5 125t-139.5 55q-90 0 -152 -65q-59 -62 -59 -195l2 -1022h-166z" />
<glyph unicode="&#xe0;" horiz-adv-x="1005" d="M92 246q0 116 68 190t174 103q145 37 373 43v8q0 101 -19 153q-44 117 -226 117q-62 0 -155 -16t-157 -37v133q158 61 331 61q174 0 256 -55q78 -52 107.5 -117.5t29.5 -187.5v-641h-124l-37 92q-139 -116 -304 -116q-132 0 -224.5 76t-92.5 194zM258 265q0 -92 109 -144 q27 -13 67 -13q32 0 66 7q116 20 207 108v236q-195 -6 -263 -19q-114 -24 -163 -102q-23 -37 -23 -73zM352 1440l92 108l365 -323l-80 -101z" />
<glyph unicode="&#xe1;" horiz-adv-x="1005" d="M92 246q0 116 68 190t174 103q145 37 373 43v8q0 101 -19 153q-44 117 -226 117q-62 0 -155 -16t-157 -37v133q158 61 331 61q174 0 256 -55q78 -52 107.5 -117.5t29.5 -187.5v-641h-124l-37 92q-139 -116 -304 -116q-132 0 -224.5 76t-92.5 194zM258 265q0 -92 109 -144 q27 -13 67 -13q32 0 66 7q116 20 207 108v236q-195 -6 -263 -19q-114 -24 -163 -102q-23 -37 -23 -73zM311 1225l365 323l92 -108l-377 -316z" />
<glyph unicode="&#xe2;" horiz-adv-x="1005" d="M92 246q0 116 68 190t174 103q145 37 373 43v8q0 101 -19 153q-44 117 -226 117q-62 0 -155 -16t-157 -37v133q158 61 331 61q174 0 256 -55q78 -52 107.5 -117.5t29.5 -187.5v-641h-124l-37 92q-139 -116 -304 -116q-132 0 -224.5 76t-92.5 194zM201 1133l344 356 l323 -352l-92 -88l-244 264l-243 -258zM258 265q0 -92 109 -144q27 -13 67 -13q32 0 66 7q116 20 207 108v236q-195 -6 -263 -19q-114 -24 -163 -102q-23 -37 -23 -73z" />
<glyph unicode="&#xe3;" horiz-adv-x="1005" d="M92 246q0 116 68 190t174 103q145 37 373 43v8q0 101 -19 153q-44 117 -226 117q-62 0 -155 -16t-157 -37v133q158 61 331 61q174 0 256 -55q78 -52 107.5 -117.5t29.5 -187.5v-641h-124l-37 92q-139 -116 -304 -116q-132 0 -224.5 76t-92.5 194zM186 1151l17 86 q40 203 182 203q54 0 95 -22t87 -62l35 -33q63 -63 105 -63q23 0 41 14q31 24 46 103l3 12l10 51l106 -17l-16 -84q-40 -203 -181 -203q-53 0 -96 22.5t-88 62.5l-34 30q-20 20 -31.5 30.5t-33 22.5t-40.5 12q-18 0 -32 -7.5t-22.5 -17.5t-16 -30t-11 -34t-8.5 -41l-8 -51z M258 265q0 -92 109 -144q27 -13 67 -13q32 0 66 7q116 20 207 108v236q-195 -6 -263 -19q-114 -24 -163 -102q-23 -37 -23 -73z" />
<glyph unicode="&#xe4;" horiz-adv-x="1005" d="M92 246q0 116 68 190t174 103q145 37 373 43v8q0 101 -19 153q-44 117 -226 117q-62 0 -155 -16t-157 -37v133q158 61 331 61q174 0 256 -55q78 -52 107.5 -117.5t29.5 -187.5v-641h-124l-37 92q-139 -116 -304 -116q-132 0 -224.5 76t-92.5 194zM180 1235v184h187v-184 h-187zM258 265q0 -92 109 -144q27 -13 67 -13q32 0 66 7q116 20 207 108v236q-195 -6 -263 -19q-114 -24 -163 -102q-23 -37 -23 -73zM629 1235v184h186v-184h-186z" />
<glyph unicode="&#xe5;" horiz-adv-x="1005" d="M92 246q0 116 68 190t174 103q145 37 373 43v8q0 101 -19 153q-44 117 -226 117q-62 0 -155 -16t-157 -37v133q158 61 331 61q174 0 256 -55q78 -52 107.5 -117.5t29.5 -187.5v-641h-124l-37 92q-139 -116 -304 -116q-132 0 -224.5 76t-92.5 194zM258 265q0 -92 109 -144 q27 -13 67 -13q32 0 66 7q116 20 207 108v236q-195 -6 -263 -19q-114 -24 -163 -102q-23 -37 -23 -73zM332 1350q0 92 64 157.5t155 65.5q89 0 154 -66.5t65 -156.5q0 -91 -64.5 -158.5t-154.5 -67.5q-91 0 -155 66.5t-64 159.5zM422 1350q0 -56 36 -94.5t91 -38.5 q54 0 91.5 39t37.5 94q0 52 -37.5 92.5t-89.5 40.5q-54 0 -91.5 -39t-37.5 -94z" />
<glyph unicode="&#xe6;" horiz-adv-x="1673" d="M123 266q0 111 92 191q119 104 416 104h94v51q0 258 -264 258q-70 0 -234 -45l-41 119q168 62 332 62q236 0 318 -175q62 76 154 125.5t202 49.5q352 0 352 -504q0 -18 -1 -40t-1 -26h-653v-12q0 -128 102 -219q106 -92 262 -92q93 0 205 34l29 -110q-149 -55 -297 -55 q-244 0 -369 149q-115 -151 -348 -151q-96 0 -176 38.5t-125 100.5q-49 67 -49 147zM287 274q0 -70 69 -116.5t150 -46.5q126 0 219 96v229q-6 0 -31.5 1t-44.5 1q-182 0 -272 -37t-90 -127zM897 559h489v35q0 112 -57 191t-155 79q-89 0 -150 -43q-118 -83 -127 -262z" />
<glyph unicode="&#xe7;" horiz-adv-x="956" d="M116 477q0 234 121 379q125 150 382 150q117 0 255 -60l-41 -119q-113 40 -206 40q-174 0 -262 -92.5t-88 -268.5q0 -180 78 -274.5t242 -114.5q23 -3 47 -3q83 0 179 33l38 -112q-140 -55 -268 -55q-1 0 -4 -0.5t-5 -0.5q-226 0 -347 130.5t-121 367.5zM341 -457l27 92 l31 -10q121 -37 172 -37q106 3 106 80q0 22 -18.5 42.5t-36.5 27.5q-21 9 -51 18l-125 39l57 217h127l-39 -157l25 -9q78 -24 118 -61.5t40 -112.5t-59 -127t-142 -52q-39 0 -82 9q-22 5 -115 31z" />
<glyph unicode="&#xe8;" horiz-adv-x="1071" d="M122 477q0 220 114 373q121 154 334 154q195 0 300.5 -118.5t105.5 -332.5v-90l-11 -17h-671q9 -140 96 -233q84 -90 274 -90q134 0 273 45v-133q-151 -53 -318 -53q-241 0 -369 127.5t-128 367.5zM298 575h510q0 129 -57 212t-167 83q-130 0 -200.5 -82.5t-85.5 -212.5z M380 1440l92 108l362 -323l-80 -101z" />
<glyph unicode="&#xe9;" horiz-adv-x="1071" d="M122 477q0 220 114 373q121 154 334 154q195 0 300.5 -118.5t105.5 -332.5v-90l-11 -17h-671q9 -140 96 -233q84 -90 274 -90q134 0 273 45v-133q-151 -53 -318 -53q-241 0 -369 127.5t-128 367.5zM298 575h510q0 129 -57 212t-167 83q-130 0 -200.5 -82.5t-85.5 -212.5z M423 1225l364 323l92 -108l-376 -316z" />
<glyph unicode="&#xea;" horiz-adv-x="1071" d="M122 477q0 220 114 373q121 154 334 154q195 0 300.5 -118.5t105.5 -332.5v-90l-11 -17h-671q9 -140 96 -233q84 -90 274 -90q134 0 273 45v-133q-151 -53 -318 -53q-241 0 -369 127.5t-128 367.5zM265 1141l344 356l324 -352l-93 -88l-243 264l-244 -258zM298 575h510 q0 129 -57 212t-167 83q-130 0 -200.5 -82.5t-85.5 -212.5z" />
<glyph unicode="&#xeb;" horiz-adv-x="1071" d="M122 477q0 220 114 373q121 154 334 154q195 0 300.5 -118.5t105.5 -332.5v-90l-11 -17h-671q9 -140 96 -233q84 -90 274 -90q134 0 273 45v-133q-151 -53 -318 -53q-241 0 -369 127.5t-128 367.5zM245 1235v184h186v-184h-186zM298 575h510q0 129 -57 212t-167 83 q-130 0 -200.5 -82.5t-85.5 -212.5zM693 1235v184h186v-184h-186z" />
<glyph unicode="&#xec;" horiz-adv-x="522" d="M-10 1440l92 108l364 -323l-79 -101zM180 0v987h164v-987h-164z" />
<glyph unicode="&#xed;" horiz-adv-x="522" d="M113 1225l362 323l92 -108l-374 -316zM180 0v987h164v-987h-164z" />
<glyph unicode="&#xee;" horiz-adv-x="522" d="M-63 1133l344 356l323 -352l-92 -88l-244 264l-243 -258zM180 0v987h164v-987h-164z" />
<glyph unicode="&#xef;" horiz-adv-x="522" d="M-14 1237v184h184v-184h-184zM180 0v987h164v-987h-164zM354 1237v184h185v-184h-185z" />
<glyph unicode="&#xf0;" horiz-adv-x="1251" d="M129 426q0 139 52.5 256t154 189t232.5 72q81 0 159 -26.5t176 -82.5q-15 107 -50.5 180t-104.5 139l-179 -102l-55 94l143 82q-91 64 -206 102l61 129q170 -47 297 -145l180 104l55 -94l-151 -86q178 -197 178 -520q0 -240 -24 -344q-29 -123 -74.5 -197.5 t-130.5 -132.5q-91 -62 -248 -62q-208 0 -336.5 120.5t-128.5 324.5zM289 487q0 -118 48.5 -204.5t131.5 -132.5q64 -36 130 -36q173 0 255 152q60 107 60 371q0 8 -0.5 26t-0.5 27q-186 117 -318 117q-135 0 -220.5 -91.5t-85.5 -228.5z" />
<glyph unicode="&#xf1;" horiz-adv-x="1064" d="M123 0v983h117l32 -74q187 99 351 99q153 0 237 -90q82 -88 82 -248v-670h-166v629q0 127 -49 182t-164 55q-121 0 -272 -71v-795h-168zM270 1161l17 86q40 204 182 204q54 0 95 -22t87 -63l35 -33q62 -62 105 -62q23 0 40 13q16 13 25 29.5t13 31t12 54.5l10 51l106 -16 l-16 -84q-40 -204 -181 -204q-53 0 -96 22.5t-88 62.5l-34 31q-64 64 -105 64q-18 0 -32 -7.5t-22.5 -17.5t-16 -30t-11 -34t-8.5 -41l-8 -51z" />
<glyph unicode="&#xf2;" horiz-adv-x="1165" d="M94 492q0 235 126 373.5t351 138.5t349 -137.5t124 -372.5q0 -234 -127.5 -374t-351.5 -140q-223 0 -347 138.5t-124 373.5zM264 492q0 -106 34 -191t104 -136.5t167 -51.5q146 0 225.5 106.5t79.5 272.5t-80 273t-225 107q-144 0 -224.5 -108.5t-80.5 -271.5zM403 1440 l93 108l364 -323l-80 -101z" />
<glyph unicode="&#xf3;" horiz-adv-x="1165" d="M94 492q0 235 126 373.5t351 138.5t349 -137.5t124 -372.5q0 -234 -127.5 -374t-351.5 -140q-223 0 -347 138.5t-124 373.5zM264 492q0 -106 34 -191t104 -136.5t167 -51.5q146 0 225.5 106.5t79.5 272.5t-80 273t-225 107q-144 0 -224.5 -108.5t-80.5 -271.5zM309 1225 l365 323l92 -108l-377 -316z" />
<glyph unicode="&#xf4;" horiz-adv-x="1165" d="M94 492q0 235 126 373.5t351 138.5t349 -137.5t124 -372.5q0 -234 -127.5 -374t-351.5 -140q-223 0 -347 138.5t-124 373.5zM248 1133l344 356l323 -352l-92 -88l-243 264l-244 -258zM264 492q0 -106 34 -191t104 -136.5t167 -51.5q146 0 225.5 106.5t79.5 272.5t-80 273 t-225 107q-144 0 -224.5 -108.5t-80.5 -271.5z" />
<glyph unicode="&#xf5;" horiz-adv-x="1165" d="M94 492q0 235 126 373.5t351 138.5t349 -137.5t124 -372.5q0 -234 -127.5 -374t-351.5 -140q-223 0 -347 138.5t-124 373.5zM223 1161l17 86q40 204 182 204q54 0 95 -22t87 -63l35 -33q62 -62 105 -62q23 0 40 13q16 13 25 29.5t13 31t12 54.5l10 51l106 -16l-16 -84 q-40 -204 -181 -204q-53 0 -96 22.5t-88 62.5l-34 31q-64 64 -105 64q-18 0 -32 -7.5t-22.5 -17.5t-16 -30t-11 -34t-8.5 -41l-8 -51zM264 492q0 -106 34 -191t104 -136.5t167 -51.5q146 0 225.5 106.5t79.5 272.5t-80 273t-225 107q-144 0 -224.5 -108.5t-80.5 -271.5z" />
<glyph unicode="&#xf6;" horiz-adv-x="1165" d="M94 492q0 235 126 373.5t351 138.5t349 -137.5t124 -372.5q0 -234 -127.5 -374t-351.5 -140q-223 0 -347 138.5t-124 373.5zM264 492q0 -106 34 -191t104 -136.5t167 -51.5q146 0 225.5 106.5t79.5 272.5t-80 273t-225 107q-144 0 -224.5 -108.5t-80.5 -271.5zM266 1235 v184h187v-184h-187zM715 1235v184h186v-184h-186z" />
<glyph unicode="&#xf7;" horiz-adv-x="1398" d="M125 588v139h1151v-139h-1151zM602 84v195h195v-195h-195zM602 1038v195h195v-195h-195z" />
<glyph unicode="&#xf8;" horiz-adv-x="1165" d="M78 41l930 954l59 -57l-932 -952zM94 492q0 235 126 373.5t351 138.5t349 -137.5t124 -372.5q0 -234 -127.5 -374t-351.5 -140q-223 0 -347 138.5t-124 373.5zM264 492q0 -106 34 -191t104 -136.5t167 -51.5q146 0 225.5 106.5t79.5 272.5t-80 273t-225 107 q-144 0 -224.5 -108.5t-80.5 -271.5z" />
<glyph unicode="&#xf9;" horiz-adv-x="1064" d="M123 313v670h166v-629q0 -125 48.5 -181t166.5 -56q119 0 270 71v795h168v-983h-117l-32 74q-187 -99 -349 -99q-154 0 -237.5 89.5t-83.5 248.5zM145 1440l93 108l364 -323l-80 -101z" />
<glyph unicode="&#xfa;" horiz-adv-x="1064" d="M123 313v670h166v-629q0 -125 48.5 -181t166.5 -56q119 0 270 71v795h168v-983h-117l-32 74q-187 -99 -349 -99q-154 0 -237.5 89.5t-83.5 248.5zM162 1225l364 323l92 -108l-376 -316z" />
<glyph unicode="&#xfb;" horiz-adv-x="1064" d="M123 313v670h166v-629q0 -125 48.5 -181t166.5 -56q119 0 270 71v795h168v-983h-117l-32 74q-187 -99 -349 -99q-154 0 -237.5 89.5t-83.5 248.5zM195 1169l344 357l323 -352l-92 -89l-244 265l-243 -258z" />
<glyph unicode="&#xfc;" horiz-adv-x="1064" d="M123 313v670h166v-629q0 -125 48.5 -181t166.5 -56q119 0 270 71v795h168v-983h-117l-32 74q-187 -99 -349 -99q-154 0 -237.5 89.5t-83.5 248.5zM213 1235v184h186v-184h-186zM662 1235v184h186v-184h-186z" />
<glyph unicode="&#xfd;" horiz-adv-x="1038" d="M45 987h166l309 -837l309 837h156l-565 -1517h-174l203 491zM401 1225l365 323l92 -108l-377 -316z" />
<glyph unicode="&#xfe;" horiz-adv-x="1220" d="M190 -530v1951h164v-536q108 117 288 117q106 0 192 -41.5t145 -110.5q113 -134 113 -348q0 -166 -78.5 -298t-206.5 -190q-83 -37 -177 -37q-166 0 -276 107v-614h-164zM344 487q0 -175 45 -243q81 -126 225 -126q140 0 229 100.5t89 244.5q0 153 -51 233 q-102 163 -267 166q-71 0 -124.5 -29.5t-84.5 -82.5t-46 -118.5t-15 -144.5z" />
<glyph unicode="&#xff;" horiz-adv-x="1038" d="M45 987h166l309 -837l309 837h156l-565 -1517h-174l203 491zM260 1235v184h186v-184h-186zM709 1235v184h186v-184h-186z" />
<glyph unicode="&#x152;" horiz-adv-x="1996" d="M215 701q0 284 123 458t358 232q126 30 367 30h774v-149h-616v-465h563v-150h-563v-507h616v-150h-864q-253 0 -403 61.5t-244 208.5q-111 171 -111 431zM385 681q0 -207 115.5 -350t290.5 -173q44 -8 133 -8h127v1122h-58q-116 0 -188 -10q-204 -33 -312 -183t-108 -398 z" />
<glyph unicode="&#x153;" horiz-adv-x="1802" d="M129 487q0 228 125 371t340 143q253 0 367 -196q125 192 360 192q142 0 230.5 -84.5t113.5 -234.5q8 -49 8 -174v-96h-651q3 -142 127 -234q85 -65 231 -65q103 0 209 34l27 -110q-148 -56 -299 -56q-266 0 -379 183q-127 -183 -363 -183q-138 0 -240 67t-154 182 t-52 261zM291 502q0 -110 38 -196t105 -136q68 -51 144 -51q74 0 120.5 22t89.5 68q82 89 82 272q0 165 -80 273t-221 108q-127 0 -202.5 -106t-75.5 -254zM1026 530h490v21q0 149 -55.5 226t-182.5 77q-121 0 -184 -96q-65 -100 -68 -228z" />
<glyph unicode="&#x178;" horiz-adv-x="1247" d="M90 1421h201l363 -587l368 587h191l-484 -747v-674h-170v674zM328 1712v184h186v-184h-186zM776 1712v184h187v-184h-187z" />
<glyph unicode="&#x2c6;" horiz-adv-x="1478" d="M442 1245l283 295l256 -285l-92 -88l-176 197l-183 -197z" />
<glyph unicode="&#x2dc;" horiz-adv-x="1398" d="M305 1284l29 55q45 91 78 129q67 73 147 73q97 0 182 -85q71 -69 95 -82q24 -12 44 -12q56 0 101 86l47 94l107 -47l-27 -53q-44 -90 -80 -131q-67 -73 -146 -73q-99 0 -184 85q-78 75 -94 84q-24 12 -44 12q-56 0 -101 -86l-47 -96z" />
<glyph unicode="&#x2000;" horiz-adv-x="965" />
<glyph unicode="&#x2001;" horiz-adv-x="1931" />
<glyph unicode="&#x2002;" horiz-adv-x="965" />
<glyph unicode="&#x2003;" horiz-adv-x="1931" />
<glyph unicode="&#x2004;" horiz-adv-x="643" />
<glyph unicode="&#x2005;" horiz-adv-x="482" />
<glyph unicode="&#x2006;" horiz-adv-x="321" />
<glyph unicode="&#x2007;" horiz-adv-x="321" />
<glyph unicode="&#x2008;" horiz-adv-x="241" />
<glyph unicode="&#x2009;" horiz-adv-x="386" />
<glyph unicode="&#x200a;" horiz-adv-x="107" />
<glyph unicode="&#x2010;" horiz-adv-x="819" d="M113 590v137h594v-137h-594z" />
<glyph unicode="&#x2011;" horiz-adv-x="819" d="M113 590v137h594v-137h-594z" />
<glyph unicode="&#x2012;" horiz-adv-x="819" d="M113 590v137h594v-137h-594z" />
<glyph unicode="&#x2013;" horiz-adv-x="1157" d="M0 590v137h1159v-137h-1159z" />
<glyph unicode="&#x2014;" horiz-adv-x="1382" d="M0 590v137h1384v-137h-1384z" />
<glyph unicode="&#x2018;" horiz-adv-x="448" d="M90 1421h195l125 -434h-195z" />
<glyph unicode="&#x2019;" horiz-adv-x="448" d="M41 987l125 434h194l-124 -434h-195z" />
<glyph unicode="&#x201a;" horiz-adv-x="448" d="M41 -215l125 432h194l-124 -432h-195z" />
<glyph unicode="&#x201c;" horiz-adv-x="829" d="M41 987l125 434h194l-124 -434h-195zM420 987l125 434h194l-125 -434h-194z" />
<glyph unicode="&#x201d;" horiz-adv-x="829" d="M41 987l125 434h194l-124 -434h-195zM420 987l125 434h194l-125 -434h-194z" />
<glyph unicode="&#x201e;" horiz-adv-x="829" d="M41 -219l125 432h194l-124 -432h-195zM420 -219l125 432h194l-125 -432h-194z" />
<glyph unicode="&#x2022;" horiz-adv-x="1392" d="M354 690q0 140 101 241t241 101t241 -101t101 -241t-101 -241t-241 -101t-241 101t-101 241z" />
<glyph unicode="&#x2026;" horiz-adv-x="1718" d="M180 0v211h209v-211h-209zM745 0v211h209v-211h-209zM1311 0v211h209v-211h-209z" />
<glyph unicode="&#x202f;" horiz-adv-x="386" />
<glyph unicode="&#x2039;" horiz-adv-x="563" d="M76 623l254 364h184l-272 -364l272 -365h-184z" />
<glyph unicode="&#x203a;" horiz-adv-x="563" d="M49 258l275 365l-275 364h187l253 -364l-253 -365h-187z" />
<glyph unicode="&#x205f;" horiz-adv-x="482" />
<glyph unicode="&#x20ac;" horiz-adv-x="1333" d="M49 504v131h205q-2 25 -2 90q0 63 8 123h-145v131h176l6 20q94 269 332 377q121 56 276 56q158 0 332 -76l-45 -142q-172 66 -295 66q-225 0 -360 -170q-50 -63 -78 -131h448v-131h-489q-15 -68 -15 -123q0 -27 5 -90h436v-131h-410q52 -159 179 -264t305 -105 q136 0 290 62l47 -127q-187 -90 -352 -90q-164 0 -280 55q-275 130 -351 469h-223z" />
<glyph unicode="&#x2122;" horiz-adv-x="1423" d="M111 1432v79h446v-79h-174v-490h-98v490h-174zM690 942v569h117l172 -317l166 317h119v-569h-99v447l-159 -293h-68l-150 297v-451h-98z" />
<glyph unicode="&#xe000;" horiz-adv-x="983" d="M0 0v983h983v-983h-983z" />
<glyph unicode="&#xfb01;" horiz-adv-x="1343" d="M51 858v129h144v100q0 131 30 187q89 155 299 155q113 0 238 -38l-27 -123q-91 25 -160 25q-85 0 -142.5 -42.5t-67.5 -105.5q-5 -35 -5 -64v-94h330v-129h-330l2 -858h-165l-2 858h-144zM942 0v989h168v-989h-168zM942 1200v170h168v-170h-168z" />
<glyph unicode="&#xfb02;" horiz-adv-x="1300" d="M51 858v129h144v100q0 131 30 187q89 155 299 155q113 0 238 -38l-27 -123q-91 25 -160 25q-85 0 -142.5 -42.5t-67.5 -105.5q-5 -35 -5 -64v-94h330v-129h-330l2 -858h-165l-2 858h-144zM887 215l1 1159h163v-1099q0 -28 1.5 -44.5t8 -37.5t20 -32t38.5 -19t62 -8 q46 0 117 22v-127q-7 -2 -32 -12t-45 -17t-54 -13.5t-67 -6.5q-96 0 -153.5 65t-59.5 170z" />
<glyph unicode="&#xfb03;" horiz-adv-x="1908" d="M135 858v129h144v100q0 131 30 187q89 155 299 155q113 0 238 -38l-27 -123q-91 25 -160 25q-85 0 -142.5 -42.5t-67.5 -105.5q-5 -35 -5 -64v-94h490v100q0 130 31 187q89 155 298 155q113 0 238 -38l-24 -123q-91 25 -161 25q-86 0 -143 -42t-69 -106q-4 -28 -4 -64 v-94h332v-129h-332l2 -858h-166l-2 858h-490l2 -858h-165l-2 858h-144zM1577 1233v188h195v-188h-195zM1593 0v987h164v-987h-164z" />
<glyph unicode="&#xfb04;" horiz-adv-x="2029" d="M121 858v129h155v100q0 130 31 187q89 155 299 155q113 0 238 -38l-27 -123q-91 25 -160 25q-85 0 -143 -42.5t-68 -105.5q-4 -28 -4 -64v-94h484v100q0 131 30 187q89 155 299 155q113 0 238 -38l-25 -123q-91 25 -161 25q-86 0 -142.5 -42t-68.5 -106q-4 -28 -4 -64 v-94h331v-129h-331l2 -858h-166l-2 858h-484l2 -858h-165l-3 858h-155zM1599 215v1159h164v-1099q0 -28 1.5 -44.5t8 -37.5t20 -32t38.5 -19t62 -8q46 0 117 22v-127q-7 -2 -32 -12t-45 -17t-54 -13.5t-67 -6.5q-96 0 -153.5 65t-59.5 170z" />
</font>
</defs>
</svg>
